<svg width="97" height="78" viewBox="0 0 97 78" fill="none" xmlns="http://www.w3.org/2000/svg">
<path d="M0 10C0 4.47715 4.47715 0 10 0H87C92.5228 0 97 4.47715 97 10V45C97 50.5228 92.5228 55 87 55H10C4.47715 55 0 50.5228 0 45V10Z" fill="#292626"/>
<g filter="url(#filter0_d_3_8)">
<path d="M6 11C6 8.23858 8.23858 6 11 6H87C89.7614 6 92 8.23858 92 11V43C92 45.7614 89.7614 48 87 48H11C8.23858 48 6 45.7614 6 43V11Z" fill="#E9F4ED"/>
</g>
<path d="M27.6545 23L29.1033 14.2727H32.5977C33.2397 14.2727 33.7596 14.3679 34.1573 14.5582C34.5579 14.7486 34.8377 15.0128 34.9968 15.3509C35.1559 15.6861 35.1985 16.0724 35.1246 16.5099C35.065 16.8509 34.9443 17.1491 34.7624 17.4048C34.5835 17.6605 34.3619 17.8707 34.0977 18.0355C33.8335 18.2003 33.5465 18.3168 33.2369 18.3849L33.2198 18.4702C33.5494 18.4844 33.8462 18.5781 34.1104 18.7514C34.3746 18.9219 34.5721 19.1634 34.7028 19.4759C34.8335 19.7884 34.8633 20.1591 34.7923 20.5881C34.7156 21.0511 34.5323 21.4645 34.2425 21.8281C33.9528 22.1889 33.5664 22.4744 33.0835 22.6847C32.6033 22.8949 32.0366 23 31.3832 23H27.6545ZM29.7553 21.4915H31.2596C31.771 21.4915 32.1616 21.392 32.4315 21.1932C32.7014 20.9943 32.8633 20.7315 32.9173 20.4048C32.9542 20.1634 32.93 19.9503 32.8448 19.7656C32.7624 19.581 32.6218 19.4361 32.4229 19.331C32.2269 19.2259 31.9783 19.1733 31.6772 19.1733H30.1346L29.7553 21.4915ZM30.3477 17.9247H31.7156C31.9656 17.9247 32.1971 17.8807 32.4102 17.7926C32.6261 17.7017 32.8036 17.5739 32.9428 17.4091C33.0849 17.2415 33.1744 17.044 33.2113 16.8168C33.2624 16.4986 33.1914 16.2443 32.9982 16.054C32.8079 15.8608 32.5096 15.7642 32.1033 15.7642H30.7056L30.3477 17.9247ZM37.4034 23.1236C36.9886 23.1236 36.6293 23.0511 36.3253 22.9063C36.0242 22.7585 35.8026 22.5398 35.6605 22.25C35.5185 21.9602 35.483 21.6009 35.554 21.1719C35.6165 20.8082 35.7344 20.5043 35.9077 20.2599C36.0838 20.0128 36.2983 19.8139 36.5511 19.6634C36.804 19.5128 37.0838 19.3977 37.3906 19.3182C37.7003 19.2386 38.0199 19.1847 38.3494 19.1563C38.7301 19.1165 39.0398 19.0781 39.2784 19.0412C39.5199 19.0043 39.7003 18.9517 39.8196 18.8835C39.9389 18.8125 40.0114 18.7074 40.0369 18.5682V18.5426C40.0795 18.2756 40.0298 18.0682 39.8878 17.9205C39.7486 17.7699 39.5256 17.6946 39.2188 17.6946C38.8949 17.6946 38.6193 17.7656 38.392 17.9077C38.1676 18.0497 38.0071 18.2301 37.9105 18.4489L36.2571 18.3125C36.4048 17.9148 36.6278 17.571 36.9261 17.2813C37.2273 16.9886 37.5895 16.7642 38.0128 16.608C38.4361 16.4489 38.9105 16.3693 39.4361 16.3693C39.7997 16.3693 40.1392 16.4119 40.4545 16.4972C40.7727 16.5824 41.0469 16.7145 41.277 16.8935C41.5099 17.0724 41.6776 17.3026 41.7798 17.5838C41.8849 17.8622 41.9063 18.196 41.8438 18.5852L41.1065 23H39.3849L39.5384 22.0923H39.4872C39.348 22.2969 39.1776 22.4773 38.9759 22.6335C38.7742 22.7869 38.5426 22.9077 38.2813 22.9957C38.0199 23.081 37.7273 23.1236 37.4034 23.1236ZM38.1321 21.8707C38.3963 21.8707 38.6392 21.8182 38.8608 21.7131C39.0852 21.6051 39.2699 21.4602 39.4148 21.2784C39.5625 21.0966 39.6563 20.8906 39.696 20.6605L39.8068 19.9659C39.75 20.0028 39.6676 20.0355 39.5597 20.0639C39.4545 20.0923 39.3395 20.1193 39.2145 20.1449C39.0923 20.1676 38.9688 20.1889 38.8438 20.2088C38.7188 20.2259 38.6065 20.2429 38.5071 20.2599C38.2884 20.2912 38.0923 20.3409 37.919 20.4091C37.7457 20.4773 37.6051 20.5696 37.4972 20.6861C37.3892 20.7997 37.3224 20.9418 37.2969 21.1122C37.2571 21.3594 37.3153 21.5483 37.4716 21.679C37.6307 21.8068 37.8509 21.8707 38.1321 21.8707ZM44.4709 21.1165L44.8331 18.9389H45.0973L47.6158 16.4545H49.6996L46.3416 19.7443H45.907L44.4709 21.1165ZM42.5149 23L43.9638 14.2727H45.7791L44.3303 23H42.5149ZM46.6058 23L45.157 20.1491L46.576 18.8665L48.7322 23H46.6058ZM51.9538 19.2159L51.3232 23H49.5121L50.9609 14.2727H52.7209L52.1754 17.6094H52.2479C52.4581 17.223 52.7465 16.9205 53.1129 16.7017C53.4794 16.4801 53.9126 16.3693 54.4126 16.3693C54.8672 16.3693 55.2465 16.4688 55.5504 16.6676C55.8573 16.8636 56.0746 17.1463 56.2024 17.5156C56.3303 17.8821 56.3516 18.321 56.2663 18.8324L55.5675 23H53.7564L54.3956 19.1563C54.4609 18.7528 54.4084 18.4389 54.2379 18.2145C54.0703 17.9901 53.8033 17.8778 53.4368 17.8778C53.1896 17.8778 52.9624 17.9304 52.755 18.0355C52.5476 18.1406 52.3729 18.294 52.2308 18.4957C52.0916 18.6946 51.9993 18.9347 51.9538 19.2159ZM61.56 16.4545L61.3342 17.8182H57.3881L57.6183 16.4545H61.56ZM58.7688 14.8864H60.5842L59.57 20.9886C59.5416 21.1563 59.5458 21.2869 59.5827 21.3807C59.6197 21.4716 59.6808 21.5355 59.766 21.5724C59.8541 21.6094 59.9592 21.6278 60.0813 21.6278C60.1666 21.6278 60.2532 21.6207 60.3413 21.6065C60.4293 21.5895 60.4961 21.5767 60.5416 21.5682L60.6097 22.919C60.5075 22.9503 60.3697 22.9844 60.1964 23.0213C60.0259 23.0582 59.8242 23.081 59.5913 23.0895C59.1481 23.1065 58.7731 23.0483 58.4663 22.9148C58.1595 22.7784 57.9393 22.5696 57.8058 22.2884C57.6722 22.0071 57.6438 21.6534 57.7205 21.2273L58.7688 14.8864ZM11.3494 38H8.21307L9.66193 29.2727H12.7386C13.6165 29.2727 14.3452 29.4517 14.9247 29.8097C15.5071 30.1676 15.9176 30.6804 16.1563 31.348C16.3949 32.0128 16.4375 32.8068 16.2841 33.7301C16.1364 34.6222 15.8423 35.3878 15.402 36.027C14.9616 36.6634 14.3977 37.152 13.7102 37.4929C13.0227 37.831 12.2358 38 11.3494 38ZM10.3224 36.419H11.456C12.0043 36.419 12.4844 36.3168 12.8963 36.1122C13.3111 35.9077 13.6506 35.5923 13.9148 35.1662C14.1818 34.7401 14.3707 34.1946 14.4815 33.5298C14.5866 32.8992 14.5795 32.3878 14.4602 31.9957C14.3438 31.6009 14.1179 31.3125 13.7827 31.1307C13.4474 30.946 13.0071 30.8537 12.4616 30.8537H11.2472L10.3224 36.419ZM16.9094 38L18.0004 31.4545H19.8157L18.7248 38H16.9094ZM19.0955 30.6023C18.8256 30.6023 18.6026 30.5128 18.4265 30.3338C18.2532 30.152 18.1822 29.9361 18.2134 29.6861C18.2447 29.4304 18.3668 29.2145 18.5799 29.0384C18.793 28.8594 19.0344 28.7699 19.3043 28.7699C19.5742 28.7699 19.7944 28.8594 19.9648 29.0384C20.1353 29.2145 20.2063 29.4304 20.1779 29.6861C20.1495 29.9361 20.0288 30.152 19.8157 30.3338C19.6055 30.5128 19.3654 30.6023 19.0955 30.6023ZM22.7188 40.5909C22.1278 40.5909 21.6349 40.5099 21.2401 40.348C20.848 40.1889 20.5497 39.9716 20.3452 39.696C20.1435 39.4205 20.0327 39.1108 20.0128 38.767L21.7344 38.5412C21.7656 38.6747 21.8253 38.7983 21.9134 38.9119C22.0043 39.0256 22.1335 39.1165 22.3011 39.1847C22.4716 39.2528 22.6918 39.2869 22.9616 39.2869C23.3565 39.2869 23.7003 39.1903 23.9929 38.9972C24.2855 38.8068 24.4659 38.4872 24.5341 38.0384L24.7301 36.8409H24.6534C24.5455 37.0227 24.3977 37.1946 24.2102 37.3565C24.0256 37.5185 23.7997 37.6506 23.5327 37.7528C23.2685 37.8551 22.9631 37.9063 22.6165 37.9063C22.1222 37.9063 21.6932 37.7926 21.3295 37.5653C20.9688 37.3352 20.7074 36.9844 20.5455 36.5128C20.3864 36.0384 20.3665 35.4389 20.4858 34.7145C20.6108 33.973 20.8352 33.3537 21.1591 32.8565C21.483 32.3594 21.8665 31.9872 22.3097 31.7401C22.7528 31.4929 23.2145 31.3693 23.6946 31.3693C24.0611 31.3693 24.3565 31.4318 24.581 31.5568C24.8082 31.679 24.983 31.8324 25.1051 32.017C25.2273 32.1989 25.3139 32.3778 25.3651 32.554H25.4375L25.6165 31.4545H27.419L26.3196 38.0639C26.2315 38.6236 26.0199 39.0895 25.6847 39.4617C25.3523 39.8367 24.9304 40.1179 24.419 40.3054C23.9077 40.4957 23.3409 40.5909 22.7188 40.5909ZM23.4006 36.5426C23.6903 36.5426 23.9503 36.4702 24.1804 36.3253C24.4134 36.1776 24.608 35.9673 24.7642 35.6946C24.9205 35.419 25.0298 35.0895 25.0923 34.706C25.1548 34.3224 25.1534 33.9901 25.0881 33.7088C25.0256 33.4247 24.9034 33.2045 24.7216 33.0483C24.5426 32.892 24.3068 32.8139 24.0142 32.8139C23.7131 32.8139 23.4489 32.8949 23.2216 33.0568C22.9943 33.2159 22.8054 33.4375 22.6548 33.7216C22.5071 34.0057 22.4034 34.3338 22.3438 34.706C22.2813 35.0838 22.2784 35.4105 22.3352 35.6861C22.3949 35.9588 22.5128 36.1705 22.6889 36.321C22.8651 36.4688 23.1023 36.5426 23.4006 36.5426ZM27.7727 38L28.8636 31.4545H30.679L29.5881 38H27.7727ZM29.9588 30.6023C29.6889 30.6023 29.4659 30.5128 29.2898 30.3338C29.1165 30.152 29.0455 29.9361 29.0767 29.6861C29.108 29.4304 29.2301 29.2145 29.4432 29.0384C29.6563 28.8594 29.8977 28.7699 30.1676 28.7699C30.4375 28.7699 30.6577 28.8594 30.8281 29.0384C30.9986 29.2145 31.0696 29.4304 31.0412 29.6861C31.0128 29.9361 30.892 30.152 30.679 30.3338C30.4688 30.5128 30.2287 30.6023 29.9588 30.6023ZM36.8335 31.8082C36.8477 31.4531 36.744 31.179 36.5224 30.9858C36.3036 30.7926 35.9727 30.696 35.5295 30.696C35.2283 30.696 34.967 30.7386 34.7454 30.8239C34.5238 30.9063 34.3462 31.0213 34.2127 31.169C34.082 31.3139 34.0011 31.4815 33.9698 31.6719C33.9386 31.8281 33.9485 31.9645 33.9996 32.081C34.0536 32.1974 34.1374 32.2983 34.2511 32.3835C34.3675 32.4659 34.5053 32.5384 34.6644 32.6009C34.8235 32.6605 34.9925 32.7117 35.1715 32.7543L35.9215 32.9418C36.288 33.027 36.6175 33.1406 36.9102 33.2827C37.2056 33.4247 37.4528 33.5994 37.6516 33.8068C37.8533 34.0142 37.9954 34.2585 38.0778 34.5398C38.1602 34.821 38.1715 35.1435 38.1119 35.5071C38.021 36.0412 37.8093 36.5043 37.4769 36.8963C37.1445 37.2855 36.7085 37.5881 36.1687 37.804C35.6289 38.017 35.0039 38.1236 34.2937 38.1236C33.5891 38.1236 32.994 38.0156 32.5082 37.7997C32.0224 37.5838 31.6687 37.2642 31.4471 36.8409C31.2283 36.4148 31.163 35.8878 31.2511 35.2599H33.0366C33.0053 35.5526 33.0479 35.7969 33.1644 35.9929C33.2837 36.1861 33.4613 36.3324 33.6971 36.4318C33.9329 36.5284 34.2099 36.5767 34.5281 36.5767C34.8434 36.5767 35.1232 36.5313 35.3675 36.4403C35.6147 36.3494 35.815 36.223 35.9684 36.0611C36.1218 35.8992 36.2156 35.7131 36.2496 35.5028C36.2837 35.3068 36.2539 35.142 36.1602 35.0085C36.0664 34.875 35.9158 34.7614 35.7085 34.6676C35.5039 34.571 35.2496 34.4858 34.9457 34.4119L34.0337 34.1733C33.3292 33.9943 32.7965 33.7145 32.4357 33.3338C32.0749 32.9531 31.9457 32.4403 32.0479 31.7955C32.1389 31.267 32.359 30.8054 32.7085 30.4105C33.0607 30.0128 33.5039 29.7045 34.038 29.4858C34.5749 29.2642 35.1616 29.1534 35.7979 29.1534C36.4457 29.1534 36.9925 29.2656 37.4386 29.4901C37.8846 29.7116 38.2099 30.0213 38.4144 30.419C38.619 30.8168 38.6815 31.2798 38.6019 31.8082H36.8335ZM41.8715 38.1278C41.2038 38.1278 40.6513 37.9858 40.2138 37.7017C39.7763 37.4148 39.468 37.017 39.2891 36.5085C39.1129 35.9972 39.0803 35.402 39.1911 34.723C39.299 34.0526 39.5234 33.4659 39.8644 32.9631C40.2053 32.4602 40.6385 32.0696 41.1641 31.7912C41.6896 31.5099 42.282 31.3693 42.9411 31.3693C43.6058 31.3693 44.157 31.5128 44.5945 31.7997C45.032 32.0838 45.3402 32.4815 45.5192 32.9929C45.6982 33.5043 45.7322 34.0994 45.6215 34.7784C45.5107 35.446 45.2834 36.0313 44.9396 36.5341C44.5959 37.0369 44.1626 37.429 43.6399 37.7102C43.1172 37.9886 42.5277 38.1278 41.8715 38.1278ZM42.0504 36.7216C42.3572 36.7216 42.6286 36.6349 42.8644 36.4617C43.103 36.2855 43.3004 36.0469 43.4567 35.7457C43.6158 35.4418 43.7266 35.098 43.7891 34.7145C43.8516 34.3367 43.8558 34.0014 43.8019 33.7088C43.7479 33.4134 43.6342 33.1804 43.4609 33.0099C43.2905 32.8395 43.0561 32.7543 42.7578 32.7543C42.451 32.7543 42.1783 32.8423 41.9396 33.0185C41.701 33.1918 41.5036 33.4304 41.3473 33.7344C41.1911 34.0384 41.0817 34.3835 41.0192 34.7699C40.9595 35.1449 40.9553 35.4801 41.0064 35.7756C41.0575 36.0682 41.1697 36.2997 41.343 36.4702C41.5163 36.6378 41.7521 36.7216 42.0504 36.7216ZM49.5291 29.2727L48.0803 38H46.2649L47.7138 29.2727H49.5291ZM54.1964 35.2131L54.8228 31.4545H56.6381L55.5472 38H53.8043L54.0004 36.8111H53.9322C53.7305 37.1946 53.4364 37.5028 53.0501 37.7358C52.6637 37.9688 52.2248 38.0852 51.7333 38.0852C51.2958 38.0852 50.9265 37.9858 50.6254 37.7869C50.3271 37.5881 50.1154 37.3054 49.9904 36.9389C49.8654 36.5724 49.8441 36.1335 49.9265 35.6222L50.6254 31.4545H52.4407L51.8015 35.2983C51.7418 35.6847 51.7958 35.9901 51.9634 36.2145C52.131 36.4389 52.3867 36.5511 52.7305 36.5511C52.9492 36.5511 53.1609 36.5014 53.3654 36.402C53.5728 36.2997 53.7518 36.1492 53.9023 35.9503C54.0529 35.7514 54.1509 35.5057 54.1964 35.2131ZM61.5717 31.4545L61.3459 32.8182H57.3999L57.63 31.4545H61.5717ZM58.7805 29.8864H60.5959L59.5817 35.9886C59.5533 36.1563 59.5575 36.2869 59.5945 36.3807C59.6314 36.4716 59.6925 36.5355 59.7777 36.5724C59.8658 36.6094 59.9709 36.6278 60.093 36.6278C60.1783 36.6278 60.2649 36.6207 60.353 36.6065C60.4411 36.5895 60.5078 36.5767 60.5533 36.5682L60.6215 37.919C60.5192 37.9503 60.3814 37.9844 60.2081 38.0213C60.0376 38.0582 59.8359 38.081 59.603 38.0895C59.1598 38.1065 58.7848 38.0483 58.478 37.9148C58.1712 37.7784 57.951 37.5696 57.8175 37.2884C57.684 37.0071 57.6555 36.6534 57.7323 36.2273L58.7805 29.8864ZM61.6634 38L62.7543 31.4545H64.5696L63.4787 38H61.6634ZM63.8494 30.6023C63.5796 30.6023 63.3565 30.5128 63.1804 30.3338C63.0071 30.152 62.9361 29.9361 62.9673 29.6861C62.9986 29.4304 63.1207 29.2145 63.3338 29.0384C63.5469 28.8594 63.7884 28.7699 64.0582 28.7699C64.3281 28.7699 64.5483 28.8594 64.7188 29.0384C64.8892 29.2145 64.9602 29.4304 64.9318 29.6861C64.9034 29.9361 64.7827 30.152 64.5696 30.3338C64.3594 30.5128 64.1193 30.6023 63.8494 30.6023ZM67.8988 38.1278C67.2312 38.1278 66.6786 37.9858 66.2411 37.7017C65.8036 37.4148 65.4954 37.017 65.3164 36.5085C65.1403 35.9972 65.1076 35.402 65.2184 34.723C65.3264 34.0526 65.5508 33.4659 65.8917 32.9631C66.2326 32.4602 66.6658 32.0696 67.1914 31.7912C67.717 31.5099 68.3093 31.3693 68.9684 31.3693C69.6332 31.3693 70.1843 31.5128 70.6218 31.7997C71.0593 32.0838 71.3676 32.4815 71.5465 32.9929C71.7255 33.5043 71.7596 34.0994 71.6488 34.7784C71.538 35.446 71.3107 36.0313 70.967 36.5341C70.6232 37.0369 70.19 37.429 69.6673 37.7102C69.1445 37.9886 68.555 38.1278 67.8988 38.1278ZM68.0778 36.7216C68.3846 36.7216 68.6559 36.6349 68.8917 36.4617C69.1303 36.2855 69.3278 36.0469 69.484 35.7457C69.6431 35.4418 69.7539 35.098 69.8164 34.7145C69.8789 34.3367 69.8832 34.0014 69.8292 33.7088C69.7752 33.4134 69.6616 33.1804 69.4883 33.0099C69.3178 32.8395 69.0835 32.7543 68.7852 32.7543C68.4783 32.7543 68.2056 32.8423 67.967 33.0185C67.7283 33.1918 67.5309 33.4304 67.3747 33.7344C67.2184 34.0384 67.109 34.3835 67.0465 34.7699C66.9869 35.1449 66.9826 35.4801 67.0337 35.7756C67.0849 36.0682 67.1971 36.2997 67.3704 36.4702C67.5437 36.6378 67.7795 36.7216 68.0778 36.7216ZM74.7468 34.2159L74.1161 38H72.3051L73.396 31.4545H75.1218L74.9343 32.6094H75.0068C75.2141 32.2259 75.5068 31.9233 75.8846 31.7017C76.2653 31.4801 76.6985 31.3693 77.1843 31.3693C77.6389 31.3693 78.0181 31.4688 78.3221 31.6676C78.6289 31.8665 78.8448 32.1492 78.9698 32.5156C79.0977 32.8821 79.119 33.321 79.0337 33.8324L78.3349 38H76.5195L77.163 34.1563C77.2283 33.7557 77.1772 33.4432 77.0096 33.2188C76.8448 32.9915 76.5792 32.8778 76.2127 32.8778C75.9684 32.8778 75.744 32.9304 75.5394 33.0355C75.3349 33.1406 75.163 33.294 75.0238 33.4957C74.8874 33.6946 74.7951 33.9347 74.7468 34.2159ZM85.9744 33.321L84.3253 33.4233C84.3168 33.2784 84.277 33.1492 84.206 33.0355C84.1378 32.919 84.0369 32.8267 83.9034 32.7585C83.7727 32.6903 83.608 32.6563 83.4091 32.6563C83.1108 32.6563 82.8452 32.7244 82.6122 32.8608C82.3793 32.9972 82.2472 33.1719 82.2159 33.3849C82.1903 33.5213 82.2259 33.6364 82.3225 33.7301C82.419 33.8239 82.6136 33.9034 82.9063 33.9688L84.0568 34.2074C84.6705 34.3381 85.1136 34.5554 85.3864 34.8594C85.6619 35.1634 85.76 35.5611 85.6804 36.0526C85.6094 36.4702 85.4261 36.8352 85.1307 37.1477C84.8352 37.4574 84.4602 37.6989 84.0057 37.8722C83.5511 38.0426 83.0469 38.1278 82.4929 38.1278C81.6037 38.1278 80.9276 37.946 80.4645 37.5824C80.0014 37.2188 79.7784 36.7259 79.7955 36.1037L81.5682 36.0099C81.5824 36.277 81.6761 36.4787 81.8494 36.6151C82.0227 36.7486 82.26 36.8168 82.5611 36.8196C82.8992 36.8253 83.1861 36.7557 83.4219 36.6108C83.6605 36.4631 83.7955 36.2841 83.8267 36.0739C83.8494 35.9261 83.8068 35.8068 83.6989 35.7159C83.5938 35.625 83.4006 35.5497 83.1193 35.4901L82.0284 35.2642C81.4091 35.1364 80.9645 34.9077 80.6946 34.5781C80.4247 34.2486 80.3324 33.8295 80.4176 33.321C80.4858 32.9148 80.6548 32.5668 80.9247 32.277C81.1975 31.9844 81.5483 31.7599 81.9773 31.6037C82.4091 31.4474 82.8963 31.3693 83.4389 31.3693C84.2884 31.3693 84.9276 31.544 85.3565 31.8935C85.7884 32.2429 85.9943 32.7188 85.9744 33.321Z" fill="#128BEE"/>
<path d="M48.5 48L90.5022 70.5H6.49777L48.5 48Z" fill="#302929"/>
<defs>
<filter id="filter0_d_3_8" x="2" y="6" width="94" height="50" filterUnits="userSpaceOnUse" color-interpolation-filters="sRGB">
<feFlood flood-opacity="0" result="BackgroundImageFix"/>
<feColorMatrix in="SourceAlpha" type="matrix" values="0 0 0 0 0 0 0 0 0 0 0 0 0 0 0 0 0 0 127 0" result="hardAlpha"/>
<feOffset dy="4"/>
<feGaussianBlur stdDeviation="2"/>
<feComposite in2="hardAlpha" operator="out"/>
<feColorMatrix type="matrix" values="0 0 0 0 0 0 0 0 0 0 0 0 0 0 0 0 0 0 0.25 0"/>
<feBlend mode="normal" in2="BackgroundImageFix" result="effect1_dropShadow_3_8"/>
<feBlend mode="normal" in="SourceGraphic" in2="effect1_dropShadow_3_8" result="shape"/>
</filter>
</defs>
</svg>
